<svg xmlns="http://www.w3.org/2000/svg" version="1.1" xmlns:xlink="http://www.w3.org/1999/xlink" xmlns:svgjs="http://svgjs.com/svgjs" overflow="visible" viewBox="0 0 568.8 135.95"><g class="signage-logo" opacity="1"><defs id="SvgjsDefs1033"></defs><g id="SvgjsG1034" transform="scale(1.2311688311688311)" opacity="1"><g id="SvgjsG1035" class="y_ov2FUsT" transform="translate(-7.972829548258138, -24.522828662240613) scale(1.5945659096516276)" light-content="false" non-strokable="false" fill="#ffffff"><path d="M48.664 26.832l20.75-10.375L95 29.25 69.414 42.043l-20.75-10.375L25.75 43.125V15.379l3.129 1.563 19.785 9.89zm-4.836 2.418L30.07 22.371V36.13zm9.668 0l15.918 7.96 15.918-7.96-15.918-7.96z" fill-rule="evenodd"></path><path d="M27.914 47.582l20.754-10.375L74.254 50 48.668 62.793 27.914 52.418 5 63.875V36.129l3.129 1.563 19.785 9.89zM23.082 50L9.324 43.121V56.88zm9.668 0l15.918 7.96L64.586 50l-15.918-7.96z" fill-rule="evenodd"></path><path d="M48.664 68.336l20.75-10.375L95 70.754 69.414 83.547l-20.75-10.375L25.75 84.629V56.883l3.129 1.562 19.785 9.895zm-4.836 2.414L30.07 63.871V77.63zm9.668 0l15.918 7.961 15.918-7.96-15.918-7.962z" fill-rule="evenodd"></path></g><g id="SvgjsG1036" class="text" transform="translate(318.77571431158617, 78.31333652255805) scale(1)" light-content="false" fill="#ffffff"><path d="M6.62 7.11L14.22 6.18L14.22 -14.96L18.55 -14.96L19.91 -23.62L-2.78 -23.62L-2.78 -25.66C-2.78 -26.69 -2.49 -27.38 -1.92 -27.73C-1.34 -28.08 -0.37 -28.26 0.99 -28.26L6.49 -28.26L8.28 -37.34C4.16 -38.21 0.18 -38.64 -3.68 -38.64C-7.53 -38.64 -10.44 -37.65 -12.4 -35.67C-14.35 -33.7 -15.33 -29.97 -15.33 -24.48L-10.08 -22.69L-10.08 -22.44C-15.19 -21.7 -17.74 -17.93 -17.74 -11.13C-17.74 -3.09 -14.14 0.93 -6.92 0.93C-3.92 0.93 0.08 0.19 5.07 -1.3ZM0.19 -9.65C-1.79 -9.65 -2.78 -10.57 -2.78 -12.43L-2.78 -14.96L2.6 -14.96L3.52 -9.89C2.49 -9.73 1.38 -9.65 0.19 -9.65Z"></path></g><g id="SvgjsG1037" class="text" transform="translate(408.4320836250252, 76.38780187306452) scale(1)" light-content="false" fill="#ffffff"><path d="M-52.65 -0.68C-48.07 0.39 -43.1 0.93 -37.75 0.93C-35.52 0.93 -33.74 0.88 -32.4 0.77C-31.06 0.67 -29.5 0.37 -27.73 -0.12C-25.96 -0.62 -24.59 -1.33 -23.62 -2.26C-22.65 -3.18 -21.81 -4.54 -21.11 -6.34C-20.41 -8.13 -20.06 -10.33 -20.06 -12.92C-20.06 -16.55 -21.09 -19.38 -23.15 -21.42C-25.22 -23.46 -28.95 -24.75 -34.35 -25.29L-38.8 -25.72L-38.8 -28.75C-37.19 -28.96 -35.23 -29.06 -32.92 -29.06C-30.61 -29.06 -27.54 -28.75 -23.71 -28.13L-22.17 -38.02C-26.58 -39.05 -31.52 -39.57 -37 -39.57C-42.49 -39.57 -46.37 -38.58 -48.66 -36.6C-50.95 -34.62 -52.09 -31 -52.09 -25.72C-52.09 -21.89 -51.15 -18.99 -49.28 -17.03C-47.4 -15.08 -43.95 -13.87 -38.92 -13.42L-33.36 -12.92L-33.36 -9.83C-35.21 -9.58 -37.65 -9.46 -40.68 -9.46C-43.71 -9.46 -47.12 -9.93 -50.91 -10.88Z M-0.77 -31.84C-6.17 -31.84 -10.93 -31.2 -15.05 -29.92L-13.57 -21.08C-10.23 -22.2 -6.23 -22.75 -1.58 -22.75C-0.71 -22.75 0.38 -22.71 1.7 -22.63L1.7 -20.4L-0.77 -20.4C-11.98 -20.4 -17.59 -16.69 -17.59 -9.27C-17.59 -5.23 -16.42 -2.47 -14.07 -0.99C-12.99 -0.29 -11.9 0.21 -10.79 0.49C-9.68 0.78 -8.2 0.93 -6.37 0.93C-4.53 0.93 -2.59 0.54 -0.53 -0.25C1.54 -1.03 3.16 -2.12 4.36 -3.52L7.88 0L14.07 0L14.07 -21.64C14.07 -28.44 9.12 -31.84 -0.77 -31.84ZM-5.1 -10.63C-5.1 -11.75 -4.76 -12.46 -4.08 -12.77C-3.4 -13.08 -2.32 -13.23 -0.83 -13.23L1.7 -13.23L1.7 -10.33C1.7 -9.67 1.44 -9.13 0.93 -8.72C0.41 -8.31 -0.75 -8.1 -2.57 -8.1L-5.1 -8.1Z M19.63 0L32 0L32 -30.91L19.63 -29.37ZM18.95 -36.73C18.95 -34.87 19.41 -33.59 20.34 -32.89C21.27 -32.19 23.1 -31.84 25.84 -31.84C28.58 -31.84 30.42 -32.19 31.35 -32.89C32.27 -33.59 32.74 -34.87 32.74 -36.73C32.74 -38.58 32.27 -39.88 31.35 -40.62C30.42 -41.36 28.58 -41.73 25.84 -41.73C23.1 -41.73 21.27 -41.36 20.34 -40.62C19.41 -39.88 18.95 -38.58 18.95 -36.73Z M50.54 -41.12L38.18 -40.19L38.18 -5.81C38.18 -4.82 38.34 -3.96 38.67 -3.22C39.17 -2.02 40.47 -1.03 42.57 -0.25C44.26 0.37 47.74 0.68 53.02 0.68L53.57 -8.41C52.87 -8.45 51.86 -8.59 50.54 -8.84Z"></path></g><g id="SvgjsG1038" class="text" transform="translate(214.30093278417382, 75.77780126271296) scale(1)" light-content="false" fill="#ffffff"><path d="M-49.15 0L-36.79 0L-36.79 -38.64L-49.15 -38.64L-49.15 -24.98L-58.43 -24.98L-58.43 -38.64L-70.79 -38.64L-70.79 0L-58.43 0L-58.43 -13.66L-49.15 -13.66Z M-31.84 -15.46C-31.84 -9.93 -30.55 -5.82 -27.98 -3.12C-25.4 -0.42 -21.23 0.93 -15.46 0.93C-9.69 0.93 -5.51 -0.42 -2.94 -3.12C-0.36 -5.82 0.93 -9.93 0.93 -15.46C0.93 -20.98 -0.36 -25.09 -2.94 -27.79C-5.51 -30.49 -9.69 -31.84 -15.46 -31.84C-21.23 -31.84 -25.4 -30.49 -27.98 -27.79C-30.55 -25.09 -31.84 -20.98 -31.84 -15.46ZM-18.55 -20.22C-18.55 -21.33 -18.21 -22.04 -17.53 -22.35C-16.85 -22.66 -15.77 -22.81 -14.28 -22.81L-12.37 -22.81L-12.37 -10.7C-12.37 -9.58 -12.71 -8.87 -13.39 -8.56C-14.07 -8.25 -15.15 -8.1 -16.63 -8.1L-18.55 -8.1Z M4.64 -15.46C4.64 -9.93 5.93 -5.82 8.5 -3.12C11.08 -0.42 15.25 0.93 21.02 0.93C26.79 0.93 30.97 -0.42 33.54 -3.12C36.12 -5.82 37.41 -9.93 37.41 -15.46C37.41 -20.98 36.12 -25.09 33.54 -27.79C30.97 -30.49 26.79 -31.84 21.02 -31.84C15.25 -31.84 11.08 -30.49 8.5 -27.79C5.93 -25.09 4.64 -20.98 4.64 -15.46ZM17.93 -20.22C17.93 -21.33 18.27 -22.04 18.95 -22.35C19.63 -22.66 20.71 -22.81 22.2 -22.81L24.11 -22.81L24.11 -10.7C24.11 -9.58 23.77 -8.87 23.09 -8.56C22.41 -8.25 21.33 -8.1 19.85 -8.1L17.93 -8.1Z M59.91 0L73.27 0L65.78 -16.2L72.96 -30.91L59.6 -30.91L55.15 -20.71L54.72 -20.71L54.72 -41.12L42.35 -40.19L42.35 0L54.72 0L54.72 -12.24L55.15 -12.24Z"></path></g></g></g></svg>